Patient4_TMGait_0pt6_02_right_25_EMG.mot
version=1
nRows=37
nColumns=33
inDegrees=no
endheader
time	1LAddLong	2LGlutMax	3LGlutMed	4LIliopsoas	5LSemiMemb	6LBicFemLong	7LRecFem	8LVastMed	9LVastLat	10LGasMed	11LTibAnt	12lTibPost	13LPeroneusLong	14LSol	15LExtDigLong	16LFlexDigLong	17RAddLong	18RGlutMax	19RGlutMed	20RIliopsoas	21RSemiMemb	22RBicFemLong	23RRecFem	24RVastMed	25RVastLat	26RGasMed	27RTibAnt	28RTibPost	29RPeroneusLong	30RSol	31RExtDigLong	32RFlexDigLong
30.825	0.055237	0.43869	0.35309	0.015717	0.17838	-0.31158	0.13123	-0.041351	-0.16815	-0.009766	-0.045319	-0.002289	0.18921	0.033112	0.096436	-0.002289	0.027466	-0.010529	0.22873	-0.095673	0.018005	-0.080872	-0.2504	-0.003357	0.004272	-0.014343	0.03891	0.000153	0.49805	0.33096	0.00412	-0.015717
30.826	0.009918	0.45807	0.39734	0.013428	0.047455	0.14542	0.047302	-0.018768	-0.032196	-0.036316	-0.026093	0.005035	0.14877	0.077209	-0.006409	-0.001526	-0.000916	0.010834	0.37048	-0.12329	0.025482	-0.093536	-0.2214	-0.04715	-0.010376	-0.000916	-0.40726	0.002289	0.85449	0.27115	0.001678	-0.023041
30.827	-0.008698	0.50034	0.28076	-0.005646	-0.058899	0.3833	-0.061188	-0.00824	0.09079	0.002747	-0.063629	-0.000763	-0.034637	0.04837	-0.15106	0.020752	-0.051422	-0.007324	0.27878	-0.053101	0.030518	-0.085602	-0.22476	-0.048828	0.010681	-0.00061	-0.57541	0.001984	0.51315	0.28458	0.00061	-0.016632
30.828	-0.018921	0.4773	0.20233	0.009003	-0.11978	0.41946	-0.11124	0.000916	0.18005	0.025482	-0.06073	-0.00061	-0.082855	-0.03006	-0.31601	-0.014343	-0.063782	-0.019684	0.25207	0.052795	0.016479	-0.053558	-0.24933	-0.034485	0.011902	-0.012817	-0.63889	0.001221	0.35294	0.28702	0.002136	-0.017395
30.829	-0.024109	0.50369	0.067902	0.021515	-0.17425	0.3688	-0.10346	0.007477	0.28168	-0.011902	-0.045776	0.001526	-0.058899	0.10742	0.55222	0.004578	-0.079803	0.011292	-0.005188	0.11765	-0.010376	-0.1004	-0.25803	-0.039978	0.021362	-0.016937	-0.43716	0.001526	0.27359	0.15213	-0.001373	-0.015564
30.83	-0.015259	0.40192	-0.042725	-0.007477	-0.16495	0.18814	-0.20371	-0.000305	0.26733	-0.025024	0.052185	0.007477	-0.33905	0.15167	0.39047	0.002747	-0.058899	0.089722	0.051117	0.006256	-0.009155	-0.085449	-0.25879	-0.041962	0.016327	-0.005646	-0.11765	0.001221	0.13947	-0.015259	0	-0.023041
30.831	0.005493	0.34897	-0.048523	-0.006714	0.046082	-0.079803	-0.18921	-0.016327	0.18249	-0.014343	0.040894	0.006256	-0.12558	0.13718	-0.19226	0.002136	-0.002594	0.11551	0.1358	-0.1239	-0.009003	-0.046539	-0.24185	0.009308	0.028839	-0.002899	0.66361	0.002289	-0.29098	-0.16403	0.000458	-0.016327
30.832	0.016327	0.28595	-0.03479	0.001984	0.19363	-0.081482	-0.056305	-0.020294	0.001373	-0.046539	-0.01236	-0.003357	0.45868	0.13077	-0.25528	0.009003	0.042572	0.14984	0.20706	-0.11505	0.010529	-0.010071	-0.2449	0.021362	0.046997	-0.003662	0.44525	0.002289	-0.63599	-0.19699	0.000305	-0.010529
30.833	0.012817	0.22003	-0.11658	0.001831	0.15381	0.07431	0.094299	-0.037231	-0.28183	-0.064697	-0.045776	0.006256	0.66803	0.027771	-0.34073	0.00473	0.066528	0.22263	0.17471	0.023956	0.014191	0.0177	-0.25711	0.068359	0.048981	0.011444	-0.27847	0.000305	-0.33463	-0.17273	-0.001221	-0.003815
30.834	-0.013885	0.16602	-0.13611	0.005646	0.079651	-0.13458	0.14328	-0.014954	-0.336	-0.073242	0.028839	0.001068	-0.098114	0.045319	-0.26718	0.003815	0.066071	0.1593	0.26306	0.159	0.051422	0.004425	-0.21362	0.080872	0.052338	0.016022	0.22675	0.00351	-0.56732	-0.18921	-0.001831	-0.003357
30.835	-0.029297	0.13534	-0.18188	0.000458	0.031738	0.040894	0.10056	-0.002136	-0.27023	-0.046692	0.098114	0.006714	-0.23117	0.052185	0.25894	0.001984	0.077972	0.19165	0.14847	0.14175	0.076141	0.002289	-0.21759	0.075836	0.063782	0.005035	0.48233	0.000458	-0.85892	-0.26138	-0.00061	-0.010681
30.836	-0.023956	0.11475	-0.16464	-0.005951	-0.074158	0.13809	0.020905	-0.007324	-0.13489	-0.040894	0.077057	0.009155	-0.21347	0.045471	-0.00473	-0.007629	0.050659	0.18204	0.13077	-0.098877	0.077209	-0.002899	-0.17532	0.027466	0.032959	0	0.42755	-0.001068	0.55191	-0.11444	-0.006409	-0.008392
30.837	-0.025177	0.19089	-0.2417	0.000153	-0.10178	0.30838	-0.041656	-0.002899	-0.031433	0.018616	0.070496	-0.001984	-0.14297	-0.023041	0.014648	-0.013275	-0.003662	0.13916	0.038757	-0.16602	0.074005	-0.04837	-0.16388	-0.057678	0.023499	-0.014648	0.67413	-0.002747	0.64987	0.040741	-0.001373	-0.016785
30.838	-0.024109	0.21759	-0.24597	-0.007935	-0.13901	0.21957	-0.016937	-0.012054	-0.007172	0.037689	0.15396	0.001373	-0.14847	-0.035248	-0.27679	-0.010071	-0.052185	0.20844	0.090332	-0.16144	0.052185	-0.11231	-0.15076	-0.066223	0.015259	-0.016632	0.88699	-0.001068	-0.88409	0.028534	-0.00412	-0.008545
30.839	0.009613	0.20844	-0.23697	-0.01236	-0.023346	0.016022	0.057068	-0.009155	-0.00824	0.008392	0.26367	0.00473	-0.20432	0.033264	-0.17944	-0.014801	-0.055695	0.18707	0.12283	-0.075073	0.038452	-0.11597	-0.22446	-0.045929	0.007629	-0.014496	0.13092	-0.000763	-1.2181	0.086823	-0.004272	-0.012512
30.84	0.026398	0.1712	-0.061798	0.024414	0.11276	0.089569	0.079956	-0.007324	-0.006561	-0.032349	0.26886	-0.005951	0.085297	0.069275	0.14145	-0.000153	-0.00946	0.13718	0.16525	0.045471	0.057983	-0.005493	-0.22324	-0.066376	-0.007477	-0.00351	-0.12878	-0.001831	-1.5398	0.13733	-0.003357	-0.007172
30.841	0.046234	0.12131	0.023193	0.007019	0.19486	-0.016785	0.093536	-0.001068	-0.086365	-0.056915	0.080109	-0.00412	0.29923	-0.002289	0.014954	-0.00946	0.030975	0.10605	0.097961	0.039063	0.072327	0.093842	-0.17517	-0.037537	-0.006866	-0.001526	-0.08606	-0.001984	0.42007	0.24704	0.001526	-0.013123
30.842	0.049591	0.12985	0.15015	0.008087	0.2034	0.17303	0.10101	0.018311	-0.11963	-0.016174	-0.17197	0.008698	0.19409	-0.095978	-0.12497	-0.011444	0.014191	0.094299	-0.007172	0.001831	0.040894	0.10803	-0.23102	-0.066681	-0.010071	-0.003357	-0.40466	-0.000153	1.0538	0.32547	0.003967	-0.015259
30.843	0.016174	0.13748	0.12558	0.018616	0.11765	0.24094	0.12085	0.021515	-0.12329	0.003662	-0.28336	-0.002136	0.000305	-0.12131	-0.21393	-0.005188	-0.025024	0.14542	0.1062	-0.008698	0.02243	0.18784	-0.25604	-0.00946	0.007324	0.000153	-0.33936	-0.005646	0.43869	0.082092	-0.003357	-0.001526
30.844	-0.014038	0.053406	0.13489	-0.005646	-0.1033	0.24765	0.14679	0.027161	-0.088501	0.010681	-0.20111	0.003357	-0.059814	0.010681	-0.17838	0.002441	0.023804	0.14114	0.3447	0.066986	0.010071	0.12436	-0.23941	-0.00412	0.00061	-0.014343	-0.54352	-0.003204	0.78705	0.005035	0.003357	-0.014496
30.845	-0.027161	-0.006409	0.13977	-0.014496	-0.2182	0.057373	0.066528	0.03418	-0.029602	-0.009766	-0.12146	0.001373	0.35004	0.052643	-0.021362	0.018921	0.077362	0.10803	0.38559	0.1294	-0.000916	0.016022	-0.21988	0.003052	0.001526	-0.023193	-0.32532	-0.005493	0.72525	0.035248	0	-0.020142
30.846	-0.040436	-0.018005	-0.019379	0.017242	-0.30121	-0.30533	0.04425	0.018463	0.036469	-0.06134	-0.035706	0.006714	0.43976	0.080719	-0.15243	0.006104	0.11902	0.10941	0.11948	0.17456	-0.015717	-0.00351	-0.22675	0.011292	0.016174	-0.021667	0.4422	-0.00351	0.28488	-0.1413	0.002441	-0.022278
30.847	-0.027008	-0.048065	-0.11841	0.016479	-0.32288	-0.65765	-0.064545	0.013123	0.19745	-0.086517	-0.051422	-0.004425	0.36789	0.057373	-0.0177	-0.006256	0.072937	0.037537	-0.032501	0.10284	-0.014343	0.076447	-0.23987	0.10361	-0.006714	-0.000916	0.34927	-0.000153	-0.20691	-0.2092	-0.006104	-0.020294
30.848	-0.003662	-0.049286	-0.18433	0.006256	-0.28656	-0.88684	-0.069733	-0.010223	0.21835	-0.03891	-0.019226	-0.002899	-0.010223	-0.020142	0.09552	0.008545	0.035248	0.084686	-0.036011	0.057678	0.00351	0.032654	-0.25955	0.060577	0.019531	0.01236	-0.37628	-0.001526	-0.080566	-0.28686	-0.00061	-0.004883
30.849	0.035706	-0.11215	-0.23239	0.025177	-0.007629	-0.6842	-0.014801	-0.032196	0.078888	0.013733	0.12802	0.002899	-0.3067	-0.046387	-0.039673	-0.012665	0.01236	0.092773	0.089874	0.04425	0.033722	0.014343	-0.2652	0.030212	0.015869	0.007782	-0.81436	0.001373	-0.096741	-0.28961	-0.001221	-0.006104
30.85	0.076447	-0.18982	-0.36697	-0.00824	0.13489	-0.46997	-0.051117	-0.020599	0.071411	0.026855	0.1265	-0.003967	-0.20798	-0.15595	-0.080109	-0.000763	-0.020142	0.063934	0.17258	0.007935	0.072784	0.015106	-0.27603	0.041351	0.019379	-0.001831	-1.4287	-0.003204	-0.22659	-0.20462	0.00061	-0.010376
30.851	0.075836	-0.25818	-0.38208	-0.001068	0.14603	-0.16449	-0.042267	0.003662	-0.039673	0.027161	0.014648	-0.005798	-0.013885	-0.044708	0.16602	0.016632	-0.053253	-0.033112	0.22156	0.025177	0.11627	0.028381	-0.24918	0.016937	0.021362	-0.000153	-1.4517	-0.001373	-0.14404	-0.16922	-0.005035	-0.012207
30.852	0.050201	-0.23575	-0.088806	0.029755	0.12695	-0.059662	0.047607	0.0177	-0.12863	0.075226	-0.071716	0.000763	0.16953	-0.00473	0.43747	0.012817	-0.071564	0.015869	0.22934	-0.002289	0.13916	0.052338	-0.22385	0.026703	0.006256	0.00351	-1.3182	-0.000153	0.3804	-0.12558	-0.001526	-0.00885
30.853	0.041046	-0.28336	-0.018005	0.014038	0.15289	-0.03891	0.068207	0.007324	-0.2214	0.13763	-0.034637	0.007324	0.10712	0.007019	0.62454	-0.028839	-0.07019	0.007629	0.13412	-0.000305	0.14358	0.11856	-0.19791	0.086517	-0.003815	0.020752	-0.021515	0.002747	0.63889	-0.12024	-0.001678	-0.007629
30.854	0.044098	-0.37369	-0.17258	0.005341	0.18723	-0.31433	0.06424	0.023499	-0.1033	0.19836	0.056915	0.004883	-0.090179	-0.071564	0.1387	-1.3437	-0.041046	-0.072784	0.11948	0.006104	0.090637	0.11108	-0.21362	0.075531	-0.01709	0.027161	1.019	-0.000153	0.2121	-0.23865	-0.000458	-0.002136
30.855	0.043488	-0.36789	-0.020447	-0.003052	0.21164	-0.27374	0.050049	0.030518	0.15945	0.20126	0.070496	0.005035	-0.083466	-0.083466	0.19165	0.20111	0.002594	-0.10361	0.22018	0.032043	0.054626	0.056152	-0.12924	-0.032654	-0.031738	0.019836	1.0793	-0.001984	-0.15015	-0.11765	0.002289	0.001831
30.856	0.027008	-0.39703	0.12528	0.002289	0.14618	-0.36591	0.09552	0.057678	0.31403	0.032654	0.076752	0.003357	0.015564	-0.03952	0.079498	0.71655	-0.007782	-0.086975	0.3862	0.025482	-0.012207	-0.005341	-0.087738	-0.073242	-0.066376	-0.014343	0.95657	-0.002747	-0.12283	0.26352	-0.002289	-0.003662
30.857	0.010376	-0.42648	0.23254	0.033264	0.070038	-0.16312	0.083466	0.058441	0.31738	-0.20996	-0.040283	0.003052	0.067596	0.041809	0.02121	-0.14862	0.041656	-0.086517	0.25818	0.032806	-0.045929	-0.016785	-0.1062	-0.087738	-0.068359	-0.024414	0.6015	-0.002289	0.23254	0.31311	-0.002441	-0.019836
30.858	0.001678	-0.3804	0.26642	0.039825	0.017853	0.0737	0.058594	0.059052	0.32638	-0.2124	-0.18539	-0.000916	0.072632	0.08728	-0.14053	-0.24277	0.058136	-0.14084	0.14481	0.01358	-0.049286	-0.006866	-0.090637	-0.097809	-0.070343	-0.022125	0.45456	-0.00351	0.2005	0.075226	0.000153	-0.022125
30.859	0.00351	-0.30548	0.3212	0.007935	0.042419	0.10941	-0.026398	0.035553	0.42816	-0.10376	-0.10941	0.011902	0.059052	0.054932	-0.2681	0.60288	0.10696	-0.18372	0.018311	-0.037994	-0.059509	-0.032349	-0.082703	-0.17242	-0.081177	-0.012817	-0.37781	-0.002289	-0.4303	-0.033875	0.010681	-0.019836
30.86	-0.002441	-0.23254	0.29923	-0.012512	0.059509	0.070496	-0.31021	0.000458	0.6012	-0.027924	0.039825	0.010529	0.049286	0.058899	-0.11093	0.15396	0.17303	-0.1886	0.13001	-0.1297	-0.079193	-0.087128	-0.060272	-0.097504	-0.066071	-0.009155	-0.49957	-0.004578	-0.51071	0.057983	-0.000305	-0.024109
30.861	-0.021515	-0.18066	0.13245	-0.018616	-0.019531	0.37949	-0.33005	-0.039063	0.4834	0.011444	0.0177	0.006714	0.081177	0.054016	-0.019531	-0.89493	0.19073	-0.17853	0.23239	-0.088806	-0.071869	-0.10651	-0.061188	-0.10712	-0.0914	-0.001678	-0.77362	-0.002594	0.37613	0.086823	0.002594	-0.021667
